<mxfile host="app.diagrams.net" modified="2021-06-04T07:20:23.259Z" agent="5.0 (Macintosh; Intel Mac OS X 10_15_7) AppleWebKit/605.1.15 (KHTML, like Gecko) Version/14.1.1 Safari/605.1.15" etag="TVbt0OLPfuFwnfrGUJky" version="14.7.5" type="github">
  <diagram id="prtHgNgQTEPvFCAcTncT" name="Page-1">
    <mxGraphModel dx="2282" dy="1155" grid="1" gridSize="10" guides="1" tooltips="1" connect="1" arrows="1" fold="1" page="1" pageScale="1" pageWidth="827" pageHeight="1169" background="#F4F1DE" math="0" shadow="0">
      <root>
        <mxCell id="0" />
        <mxCell id="1" parent="0" />
        <mxCell id="_3-g8rv-J8m66hV7IwJR-12" value="/ONUWF" style="ellipse=1;fillColor=#F2CC8F;strokeColor=#E07A5F;fontColor=#393C56;rounded=1;" parent="1" vertex="1">
          <mxGeometry x="88" y="552.5" width="80" height="30" as="geometry" />
        </mxCell>
        <mxCell id="_3-g8rv-J8m66hV7IwJR-13" value="/cmd" style="ellipse=1;fillColor=#F2CC8F;strokeColor=#E07A5F;fontColor=#393C56;rounded=1;" parent="1" vertex="1">
          <mxGeometry x="218" y="360" width="80" height="30" as="geometry" />
        </mxCell>
        <mxCell id="_3-g8rv-J8m66hV7IwJR-14" value="" style="edgeStyle=elbowEdgeStyle;elbow=horizontal;strokeColor=#E07A5F;fontColor=#393C56;labelBackgroundColor=#F4F1DE;" parent="1" source="_3-g8rv-J8m66hV7IwJR-12" target="_3-g8rv-J8m66hV7IwJR-13" edge="1">
          <mxGeometry relative="1" as="geometry" />
        </mxCell>
        <mxCell id="_3-g8rv-J8m66hV7IwJR-50" style="edgeStyle=orthogonalEdgeStyle;orthogonalLoop=1;jettySize=auto;html=1;entryX=0;entryY=0.5;entryDx=0;entryDy=0;strokeColor=#E07A5F;fontColor=#393C56;labelBackgroundColor=#F4F1DE;" parent="1" source="_3-g8rv-J8m66hV7IwJR-15" target="_3-g8rv-J8m66hV7IwJR-48" edge="1">
          <mxGeometry relative="1" as="geometry">
            <mxPoint x="742.9975" y="340" as="targetPoint" />
          </mxGeometry>
        </mxCell>
        <mxCell id="_3-g8rv-J8m66hV7IwJR-15" value="/pkg" style="ellipse=1;fillColor=#F2CC8F;strokeColor=#E07A5F;fontColor=#393C56;rounded=1;" parent="1" vertex="1">
          <mxGeometry x="348" y="325" width="80" height="30" as="geometry" />
        </mxCell>
        <mxCell id="_3-g8rv-J8m66hV7IwJR-16" value="" style="edgeStyle=elbowEdgeStyle;elbow=horizontal;strokeColor=#E07A5F;fontColor=#393C56;labelBackgroundColor=#F4F1DE;" parent="1" source="_3-g8rv-J8m66hV7IwJR-13" target="_3-g8rv-J8m66hV7IwJR-15" edge="1">
          <mxGeometry relative="1" as="geometry" />
        </mxCell>
        <mxCell id="_3-g8rv-J8m66hV7IwJR-68" style="edgeStyle=orthogonalEdgeStyle;orthogonalLoop=1;jettySize=auto;html=1;entryX=0.5;entryY=0;entryDx=0;entryDy=0;strokeColor=#E07A5F;fontColor=#393C56;labelBackgroundColor=#F4F1DE;" parent="1" source="_3-g8rv-J8m66hV7IwJR-17" target="_3-g8rv-J8m66hV7IwJR-51" edge="1">
          <mxGeometry relative="1" as="geometry" />
        </mxCell>
        <mxCell id="_3-g8rv-J8m66hV7IwJR-17" value="/internal" style="ellipse=1;fillColor=#F2CC8F;strokeColor=#E07A5F;fontColor=#393C56;rounded=1;" parent="1" vertex="1">
          <mxGeometry x="348" y="395" width="80" height="30" as="geometry" />
        </mxCell>
        <mxCell id="_3-g8rv-J8m66hV7IwJR-18" value="" style="edgeStyle=elbowEdgeStyle;elbow=horizontal;strokeColor=#E07A5F;fontColor=#393C56;labelBackgroundColor=#F4F1DE;" parent="1" source="_3-g8rv-J8m66hV7IwJR-13" target="_3-g8rv-J8m66hV7IwJR-17" edge="1">
          <mxGeometry relative="1" as="geometry" />
        </mxCell>
        <mxCell id="_3-g8rv-J8m66hV7IwJR-19" value="/asset" style="ellipse=1;fillColor=#F2CC8F;strokeColor=#E07A5F;fontColor=#393C56;rounded=1;" parent="1" vertex="1">
          <mxGeometry x="218" y="500" width="80" height="30" as="geometry" />
        </mxCell>
        <mxCell id="_3-g8rv-J8m66hV7IwJR-20" value="" style="edgeStyle=elbowEdgeStyle;elbow=horizontal;strokeColor=#E07A5F;fontColor=#393C56;labelBackgroundColor=#F4F1DE;" parent="1" source="_3-g8rv-J8m66hV7IwJR-12" target="_3-g8rv-J8m66hV7IwJR-19" edge="1">
          <mxGeometry relative="1" as="geometry" />
        </mxCell>
        <mxCell id="_3-g8rv-J8m66hV7IwJR-21" value="roleguide.json" style="fillColor=#ffe6cc;strokeColor=#d79b00;rounded=1;" parent="1" vertex="1">
          <mxGeometry x="348" y="465" width="80" height="30" as="geometry" />
        </mxCell>
        <mxCell id="_3-g8rv-J8m66hV7IwJR-22" value="" style="edgeStyle=elbowEdgeStyle;elbow=horizontal;strokeColor=#E07A5F;fontColor=#393C56;labelBackgroundColor=#F4F1DE;" parent="1" source="_3-g8rv-J8m66hV7IwJR-19" target="_3-g8rv-J8m66hV7IwJR-21" edge="1">
          <mxGeometry relative="1" as="geometry" />
        </mxCell>
        <mxCell id="_3-g8rv-J8m66hV7IwJR-23" value="/configs" style="ellipse=1;fillColor=#F2CC8F;strokeColor=#E07A5F;fontColor=#393C56;rounded=1;" parent="1" vertex="1">
          <mxGeometry x="218" y="605" width="80" height="30" as="geometry" />
        </mxCell>
        <mxCell id="_3-g8rv-J8m66hV7IwJR-24" value="" style="edgeStyle=elbowEdgeStyle;elbow=horizontal;strokeColor=#E07A5F;fontColor=#393C56;labelBackgroundColor=#F4F1DE;" parent="1" source="_3-g8rv-J8m66hV7IwJR-12" target="_3-g8rv-J8m66hV7IwJR-23" edge="1">
          <mxGeometry relative="1" as="geometry" />
        </mxCell>
        <mxCell id="_3-g8rv-J8m66hV7IwJR-25" value="env.json" style="fillColor=#ffe6cc;strokeColor=#d79b00;rounded=1;" parent="1" vertex="1">
          <mxGeometry x="348" y="605" width="80" height="30" as="geometry" />
        </mxCell>
        <mxCell id="_3-g8rv-J8m66hV7IwJR-26" value="" style="edgeStyle=elbowEdgeStyle;elbow=horizontal;strokeColor=#E07A5F;fontColor=#393C56;labelBackgroundColor=#F4F1DE;" parent="1" source="_3-g8rv-J8m66hV7IwJR-23" target="_3-g8rv-J8m66hV7IwJR-25" edge="1">
          <mxGeometry relative="1" as="geometry" />
        </mxCell>
        <mxCell id="_3-g8rv-J8m66hV7IwJR-27" value="emoji.json" style="fillColor=#ffe6cc;strokeColor=#d79b00;rounded=1;" parent="1" vertex="1">
          <mxGeometry x="348" y="535" width="80" height="30" as="geometry" />
        </mxCell>
        <mxCell id="_3-g8rv-J8m66hV7IwJR-28" value="" style="edgeStyle=elbowEdgeStyle;elbow=horizontal;strokeColor=#E07A5F;fontColor=#393C56;labelBackgroundColor=#F4F1DE;" parent="1" source="_3-g8rv-J8m66hV7IwJR-19" target="_3-g8rv-J8m66hV7IwJR-27" edge="1">
          <mxGeometry relative="1" as="geometry" />
        </mxCell>
        <mxCell id="_3-g8rv-J8m66hV7IwJR-29" value="/log" style="ellipse=1;fillColor=#F2CC8F;strokeColor=#E07A5F;fontColor=#393C56;rounded=1;" parent="1" vertex="1">
          <mxGeometry x="218" y="745" width="80" height="30" as="geometry" />
        </mxCell>
        <mxCell id="_3-g8rv-J8m66hV7IwJR-30" value="" style="edgeStyle=elbowEdgeStyle;elbow=horizontal;strokeColor=#E07A5F;fontColor=#393C56;labelBackgroundColor=#F4F1DE;" parent="1" source="_3-g8rv-J8m66hV7IwJR-12" target="_3-g8rv-J8m66hV7IwJR-29" edge="1">
          <mxGeometry relative="1" as="geometry" />
        </mxCell>
        <mxCell id="_3-g8rv-J8m66hV7IwJR-31" value="error.log" style="fillColor=#ffe6cc;strokeColor=#d79b00;rounded=1;" parent="1" vertex="1">
          <mxGeometry x="348" y="675" width="80" height="30" as="geometry" />
        </mxCell>
        <mxCell id="_3-g8rv-J8m66hV7IwJR-32" value="" style="edgeStyle=elbowEdgeStyle;elbow=horizontal;strokeColor=#E07A5F;fontColor=#393C56;labelBackgroundColor=#F4F1DE;" parent="1" source="_3-g8rv-J8m66hV7IwJR-29" target="_3-g8rv-J8m66hV7IwJR-31" edge="1">
          <mxGeometry relative="1" as="geometry" />
        </mxCell>
        <mxCell id="_3-g8rv-J8m66hV7IwJR-33" value="user.log" style="fillColor=#ffe6cc;strokeColor=#d79b00;rounded=1;" parent="1" vertex="1">
          <mxGeometry x="348" y="745" width="80" height="30" as="geometry" />
        </mxCell>
        <mxCell id="_3-g8rv-J8m66hV7IwJR-34" value="" style="edgeStyle=elbowEdgeStyle;elbow=horizontal;strokeColor=#E07A5F;fontColor=#393C56;labelBackgroundColor=#F4F1DE;" parent="1" source="_3-g8rv-J8m66hV7IwJR-29" target="_3-g8rv-J8m66hV7IwJR-33" edge="1">
          <mxGeometry relative="1" as="geometry" />
        </mxCell>
        <mxCell id="_3-g8rv-J8m66hV7IwJR-35" value="debug.log" style="fillColor=#ffe6cc;strokeColor=#d79b00;rounded=1;" parent="1" vertex="1">
          <mxGeometry x="348" y="815" width="80" height="30" as="geometry" />
        </mxCell>
        <mxCell id="_3-g8rv-J8m66hV7IwJR-36" value="" style="edgeStyle=elbowEdgeStyle;elbow=horizontal;strokeColor=#E07A5F;fontColor=#393C56;labelBackgroundColor=#F4F1DE;" parent="1" source="_3-g8rv-J8m66hV7IwJR-29" target="_3-g8rv-J8m66hV7IwJR-35" edge="1">
          <mxGeometry relative="1" as="geometry" />
        </mxCell>
        <mxCell id="_3-g8rv-J8m66hV7IwJR-48" value="GameStarter.go" style="fillColor=#ffe6cc;strokeColor=#d79b00;rounded=1;" parent="1" vertex="1">
          <mxGeometry x="468.99749999999995" y="325" width="110" height="30" as="geometry" />
        </mxCell>
        <mxCell id="_3-g8rv-J8m66hV7IwJR-51" value="/GameHandler" style="ellipse=1;fillColor=#F2CC8F;strokeColor=#E07A5F;fontColor=#393C56;rounded=1;" parent="1" vertex="1">
          <mxGeometry x="468.99312499999996" y="455" width="120" height="30" as="geometry" />
        </mxCell>
        <mxCell id="_3-g8rv-J8m66hV7IwJR-52" value="/GameData" style="fillColor=#F2CC8F;strokeColor=#E07A5F;fontColor=#393C56;rounded=1;" parent="1" vertex="1">
          <mxGeometry x="488.99312499999996" y="535" width="80" height="30" as="geometry" />
        </mxCell>
        <mxCell id="_3-g8rv-J8m66hV7IwJR-53" value="" style="edgeStyle=elbowEdgeStyle;elbow=vertical;strokeColor=#E07A5F;fontColor=#393C56;labelBackgroundColor=#F4F1DE;" parent="1" source="_3-g8rv-J8m66hV7IwJR-51" target="_3-g8rv-J8m66hV7IwJR-52" edge="1">
          <mxGeometry relative="1" as="geometry" />
        </mxCell>
        <mxCell id="_3-g8rv-J8m66hV7IwJR-54" value="GameHandler.go" style="fillColor=#ffe6cc;strokeColor=#d79b00;rounded=1;" parent="1" vertex="1">
          <mxGeometry x="608.003125" y="525" width="120" height="30" as="geometry" />
        </mxCell>
        <mxCell id="_3-g8rv-J8m66hV7IwJR-55" value="" style="edgeStyle=elbowEdgeStyle;elbow=vertical;strokeColor=#E07A5F;fontColor=#393C56;labelBackgroundColor=#F4F1DE;" parent="1" source="_3-g8rv-J8m66hV7IwJR-51" target="_3-g8rv-J8m66hV7IwJR-54" edge="1">
          <mxGeometry relative="1" as="geometry" />
        </mxCell>
        <mxCell id="_3-g8rv-J8m66hV7IwJR-56" value="game.go" style="fillColor=#ffe6cc;strokeColor=#d79b00;rounded=1;" parent="1" vertex="1">
          <mxGeometry x="468.99312499999996" y="655" width="80" height="30" as="geometry" />
        </mxCell>
        <mxCell id="_3-g8rv-J8m66hV7IwJR-57" value="" style="edgeStyle=elbowEdgeStyle;elbow=vertical;strokeColor=#E07A5F;fontColor=#393C56;labelBackgroundColor=#F4F1DE;" parent="1" source="_3-g8rv-J8m66hV7IwJR-52" target="_3-g8rv-J8m66hV7IwJR-56" edge="1">
          <mxGeometry relative="1" as="geometry" />
        </mxCell>
        <mxCell id="_3-g8rv-J8m66hV7IwJR-58" value="user.go" style="fillColor=#ffe6cc;strokeColor=#d79b00;rounded=1;" parent="1" vertex="1">
          <mxGeometry x="588.993125" y="655" width="80" height="30" as="geometry" />
        </mxCell>
        <mxCell id="_3-g8rv-J8m66hV7IwJR-59" value="" style="edgeStyle=elbowEdgeStyle;elbow=vertical;strokeColor=#E07A5F;fontColor=#393C56;labelBackgroundColor=#F4F1DE;" parent="1" source="_3-g8rv-J8m66hV7IwJR-52" target="_3-g8rv-J8m66hV7IwJR-58" edge="1">
          <mxGeometry relative="1" as="geometry" />
        </mxCell>
        <mxCell id="_3-g8rv-J8m66hV7IwJR-60" value="/Role" style="ellipse=1;fillColor=#F2CC8F;strokeColor=#E07A5F;fontColor=#393C56;rounded=1;" parent="1" vertex="1">
          <mxGeometry x="538.003125" y="705" width="80" height="30" as="geometry" />
        </mxCell>
        <mxCell id="_3-g8rv-J8m66hV7IwJR-61" value="" style="edgeStyle=elbowEdgeStyle;elbow=vertical;strokeColor=#E07A5F;fontColor=#393C56;labelBackgroundColor=#F4F1DE;" parent="1" source="_3-g8rv-J8m66hV7IwJR-52" target="_3-g8rv-J8m66hV7IwJR-60" edge="1">
          <mxGeometry relative="1" as="geometry" />
        </mxCell>
        <mxCell id="_3-g8rv-J8m66hV7IwJR-62" value="/State" style="ellipse=1;fillColor=#F2CC8F;strokeColor=#E07A5F;fontColor=#393C56;rounded=1;" parent="1" vertex="1">
          <mxGeometry x="658.003125" y="705" width="80" height="30" as="geometry" />
        </mxCell>
        <mxCell id="_3-g8rv-J8m66hV7IwJR-63" value="" style="edgeStyle=elbowEdgeStyle;elbow=vertical;strokeColor=#E07A5F;fontColor=#393C56;labelBackgroundColor=#F4F1DE;" parent="1" source="_3-g8rv-J8m66hV7IwJR-52" target="_3-g8rv-J8m66hV7IwJR-62" edge="1">
          <mxGeometry relative="1" as="geometry" />
        </mxCell>
        <mxCell id="_3-g8rv-J8m66hV7IwJR-64" value="roles.go" style="fillColor=#ffe6cc;strokeColor=#d79b00;rounded=1;" parent="1" vertex="1">
          <mxGeometry x="538.003125" y="785" width="80" height="30" as="geometry" />
        </mxCell>
        <mxCell id="_3-g8rv-J8m66hV7IwJR-65" value="" style="edgeStyle=elbowEdgeStyle;elbow=vertical;strokeColor=#E07A5F;fontColor=#393C56;labelBackgroundColor=#F4F1DE;" parent="1" source="_3-g8rv-J8m66hV7IwJR-60" target="_3-g8rv-J8m66hV7IwJR-64" edge="1">
          <mxGeometry relative="1" as="geometry" />
        </mxCell>
        <mxCell id="_3-g8rv-J8m66hV7IwJR-66" value="states.go" style="fillColor=#ffe6cc;strokeColor=#d79b00;rounded=1;" parent="1" vertex="1">
          <mxGeometry x="658.003125" y="785" width="80" height="30" as="geometry" />
        </mxCell>
        <mxCell id="_3-g8rv-J8m66hV7IwJR-67" value="" style="edgeStyle=elbowEdgeStyle;elbow=vertical;strokeColor=#E07A5F;fontColor=#393C56;labelBackgroundColor=#F4F1DE;" parent="1" source="_3-g8rv-J8m66hV7IwJR-62" target="_3-g8rv-J8m66hV7IwJR-66" edge="1">
          <mxGeometry relative="1" as="geometry" />
        </mxCell>
        <mxCell id="bLJBoJbODMrrDLqM0BOZ-1" value="ONUWF FIle Hieararchy" style="shape=umlFrame;whiteSpace=wrap;html=1;width=170;height=25;boundedLbl=1;verticalAlign=middle;align=left;spacingLeft=5;rounded=1;fillColor=#F2CC8F;strokeColor=#E07A5F;fontColor=#393C56;" parent="1" vertex="1">
          <mxGeometry x="39" y="277" width="750" height="615" as="geometry" />
        </mxCell>
      </root>
    </mxGraphModel>
  </diagram>
</mxfile>
